<?xml version="1.0" encoding="utf-8"?>
<!-- Generator: Adobe Illustrator 16.0.0, SVG Export Plug-In . SVG Version: 6.00 Build 0)  -->
<!DOCTYPE svg PUBLIC "-//W3C//DTD SVG 1.1//EN" "http://www.w3.org/Graphics/SVG/1.1/DTD/svg11.dtd">
<svg version="1.1" id="Layer_2" xmlns="http://www.w3.org/2000/svg" xmlns:xlink="http://www.w3.org/1999/xlink" x="0px" y="0px"
	 width="93px" height="19px" viewBox="0 0 93 19" enable-background="new 0 0 93 19" xml:space="preserve">
<g>
	<g>
		<path fill-rule="evenodd" clip-rule="evenodd" fill="#FFFFFF" d="M46.4,9.699c0-2.064,0-4.075,0-6.15c-1.578,0-3.15,0-4.75,0
			c0-0.389,0-0.713,0-1.085c1.59,0,3.155,0,4.76,0c0-0.638,0-1.229,0-1.852c0.561,0,1.082,0,1.659,0c0,0.594,0,1.198,0,1.849
			c1.617,0,3.182,0,4.771,0c0,0.375,0,0.7,0,1.075c-1.584,0-3.148,0-4.734,0c0,2.06,0,4.071,0,6.132c1.824,0,3.652,0,5.518,0
			c0,0.373,0,0.696,0,1.079c-1.785,0-3.582,0-5.486,0c0.205,0.561,0.346,1.055,0.563,1.512c0.729,1.539,1.92,2.674,3.277,3.652
			c0.361,0.26,0.727,0.52,1.117,0.729c0.318,0.17,0.434,0.381,0.396,0.729c-0.027,0.273-0.006,0.551-0.006,0.904
			c-2.693-1.227-4.885-2.9-6.27-5.582c-1.347,2.705-3.554,4.367-6.274,5.568c0-0.451-0.021-0.834,0.014-1.213
			c0.01-0.113,0.156-0.246,0.271-0.314c1.097-0.641,2.125-1.369,3.014-2.287c1.045-1.08,1.845-2.52,2.002-3.672
			c-1.804,0-3.604,0-5.434,0c0-0.367,0-0.692,0-1.073C42.669,9.699,44.523,9.699,46.4,9.699z"/>
		<path fill-rule="evenodd" clip-rule="evenodd" fill="#FFFFFF" d="M81.951,8.291c-2.295,0-4.5,0-6.73,0c0-0.386,0-0.728,0-1.104
			c5.875,0,11.746,0,17.645,0c0,0.35,0,0.691,0,1.083c-0.166,0.009-0.342,0.024-0.516,0.024c-2.781,0.001-5.563,0.006-8.342-0.006
			c-0.318,0-0.494,0.091-0.656,0.375c-1.504,2.629-3.027,5.244-4.545,7.865c-0.059,0.107-0.113,0.217-0.193,0.369
			c3.639,0,7.236,0,10.891,0c-0.883-1.525-1.748-3.025-2.664-4.611c0.557,0,1.045-0.006,1.533,0.008c0.061,0,0.137,0.09,0.176,0.154
			c1.061,1.826,2.117,3.65,3.201,5.523c-5.137,0-10.229,0-15.395,0C78.209,14.764,80.051,11.576,81.951,8.291z"/>
		<path fill-rule="evenodd" clip-rule="evenodd" fill="#FFFFFF" d="M55.545,12.025c0-0.371,0-0.715,0-1.107
			c2.342-0.287,4.664-0.655,6.984-1.422c-0.17-0.098-0.283-0.158-0.391-0.226c-0.787-0.496-1.586-0.974-2.348-1.503
			c-0.287-0.198-0.479-0.235-0.809-0.087c-0.854,0.385-1.736,0.705-2.689,1.083c0-0.45-0.023-0.783,0.016-1.107
			c0.012-0.102,0.176-0.211,0.293-0.273c0.922-0.48,1.906-0.863,2.754-1.449c0.703-0.487,1.24-1.215,1.865-1.821
			c0.123-0.119,0.307-0.232,0.471-0.246c0.424-0.034,0.854-0.011,1.381-0.011c-0.299,0.48-0.551,0.883-0.84,1.346
			c2.797,0,5.563,0,8.336,0c0.102,0.607,0.078,1.065-0.418,1.493c-1.225,1.06-2.516,2.012-4.068,2.789
			c2.352,0.73,4.68,1.088,7.047,1.413c0,0.291,0.002,0.551-0.002,0.813c-0.002,0.096-0.018,0.189-0.033,0.342
			c-0.871-0.117-1.723-0.219-2.57-0.348c-2.061-0.313-4.104-0.713-6.076-1.409c-0.115-0.041-0.271-0.017-0.395,0.025
			c-2.723,0.938-5.543,1.389-8.387,1.729C55.641,12.053,55.611,12.039,55.545,12.025z M60.648,6.765
			c1.094,0.813,2.248,1.493,3.496,2.004c0.117,0.048,0.305,0.022,0.424-0.039c0.689-0.353,1.389-0.695,2.047-1.103
			c0.629-0.389,1.213-0.852,1.814-1.281c-0.014-0.038-0.027-0.076-0.043-0.115c-0.145,0-0.291,0-0.438,0
			c-2.012,0-4.023,0.014-6.035-0.009C61.41,6.217,60.984,6.291,60.648,6.765z"/>
		<path fill-rule="evenodd" clip-rule="evenodd" fill="#FFFFFF" d="M70.408,17.979c-4.061,0-8.07,0-12.107,0c0-1.889,0-3.758,0-5.68
			c0.127-0.008,0.26-0.021,0.393-0.021c3.764,0,7.529,0.004,11.295-0.006c0.332,0,0.457,0.068,0.453,0.432
			c-0.018,1.625-0.008,3.25-0.008,4.877C70.434,17.701,70.418,17.822,70.408,17.979z M68.791,16.93c0-1.219,0-2.391,0-3.563
			c-2.988,0-5.947,0-8.891,0c0,1.211,0,2.383,0,3.563C62.875,16.93,65.814,16.93,68.791,16.93z"/>
		<path fill-rule="evenodd" clip-rule="evenodd" fill="#FFFFFF" d="M39.799,0.6c0.509,0,0.992,0,1.517,0
			c-0.302,1.448-0.763,2.798-1.531,4.042c-0.148,0.241-0.244,0.56-0.245,0.843c-0.015,4.085-0.011,8.17-0.011,12.256
			c0,0.18,0,0.355,0,0.559c-0.523,0-1.002,0-1.544,0c0-3.869,0-7.732,0-11.634c-0.75,0.456-1.439,0.875-2.218,1.349
			c0-0.495-0.01-0.864,0.006-1.232c0.004-0.094,0.069-0.216,0.146-0.27c2.039-1.456,3.262-3.445,3.851-5.854
			C39.774,0.647,39.783,0.635,39.799,0.6z"/>
		<path fill-rule="evenodd" clip-rule="evenodd" fill="#FFFFFF" d="M72.578,4.722c-0.57,0-1.064,0-1.594,0c0-0.547,0-1.071,0-1.625
			c-4.391,0-8.748,0-13.16,0c0,0.527,0,1.061,0,1.621c-0.559,0-1.064,0-1.594,0c0-0.891,0-1.762,0-2.687c2.383,0,4.768,0,7.201,0
			c0-0.503,0-0.954,0-1.426c0.629,0,1.207,0,1.834,0c0,0.462,0,0.912,0,1.409c0.213,0,0.375,0,0.537,0
			c2.113,0,4.227,0.008,6.34-0.008c0.348-0.002,0.455,0.097,0.443,0.444C72.563,3.196,72.578,3.945,72.578,4.722z"/>
		<path fill-rule="evenodd" clip-rule="evenodd" fill="#FFFFFF" d="M76.898,2.859c0-0.373,0-0.715,0-1.086c4.746,0,9.477,0,14.238,0
			c0,0.351,0,0.703,0,1.086C86.406,2.859,81.678,2.859,76.898,2.859z"/>
		<path fill-rule="evenodd" clip-rule="evenodd" fill="#FFFFFF" d="M42.105,4.753c0.58,0,1.006,0,1.426,0
			c0.265,1.241,0.526,2.467,0.8,3.749c-0.375,0-0.77,0.014-1.161-0.012c-0.083-0.005-0.201-0.145-0.225-0.242
			C42.661,7.108,42.393,5.964,42.105,4.753z"/>
		<path fill-rule="evenodd" clip-rule="evenodd" fill="#FFFFFF" d="M50.916,4.759c0.416,0,0.855,0,1.32,0
			c-0.127,1.227-0.363,2.402-0.771,3.54c-0.033,0.092-0.191,0.188-0.299,0.196c-0.344,0.025-0.691,0.009-1.049,0.009
			C50.383,7.257,50.645,6.034,50.916,4.759z"/>
	</g>
	<g>
		<circle fill="#FFFFFF" cx="10.809" cy="18.278" r="0.679"/>
		<polygon fill="#FFFFFF" points="9.173,11.334 9.181,11.326 9.171,11.328 		"/>
		<circle fill="#FFFFFF" cx="22.32" cy="17.112" r="1.358"/>
		<circle fill="#FFFFFF" cx="18.483" cy="15.947" r="1.154"/>
		<circle fill="#FFFFFF" cx="14.646" cy="17.112" r="0.95"/>
		<circle fill="#FFFFFF" cx="7.789" cy="17.112" r="0.476"/>
		<path fill="#FFFFFF" d="M25.431,6.267c-0.089,0-0.179,0.002-0.268,0.007l-0.077,0.004c-0.068,0.004-0.133,0.009-0.198,0.015
			L24.807,6.3c-0.064,0.007-0.13,0.015-0.197,0.024c-0.733-3.718-3.954-6.378-7.79-6.378c-3.111,0-5.907,1.792-7.204,4.59
			C9.346,4.486,9.069,4.46,8.791,4.46c-2.096,0-3.917,1.434-4.42,3.443C2.472,8.26,0.914,9.698,0.409,11.568l-0.004,0.004
			l-0.037,0.16c-0.001,0.006-0.003,0.012-0.004,0.02L0.359,11.77c-0.013,0.059-0.025,0.115-0.037,0.174l-0.005,0.031
			c-0.012,0.072-0.022,0.131-0.032,0.191c-0.002,0.021-0.005,0.041-0.008,0.063L0.275,12.25c-0.007,0.049-0.013,0.1-0.018,0.15
			c-0.003,0.031-0.005,0.064-0.007,0.096l-0.005,0.07c-0.002,0.025-0.004,0.049-0.005,0.072c-0.004,0.084-0.006,0.168-0.006,0.25
			c0,2.799,2.276,5.074,5.074,5.074c0.558,0,1.011-0.453,1.011-1.012c0-0.557-0.454-1.01-1.011-1.01
			c-1.683,0-3.052-1.369-3.052-3.053c0-1.658,1.35-3.027,3.008-3.05l0.06,0c0.688,0.001,1.339,0.229,1.879,0.658
			c0.178,0.141,0.401,0.217,0.627,0.217c0.311,0,0.6-0.139,0.792-0.382c0.346-0.436,0.272-1.074-0.164-1.42
			C7.866,8.442,7.206,8.122,6.489,7.953c0.409-0.882,1.307-1.469,2.301-1.469c0.354,0,0.697,0.071,1.021,0.214l1.028,0.452
			l0.341-1.068c0.789-2.46,3.056-4.112,5.641-4.112c2.927,0,5.398,2.128,5.847,4.991c-1.172,0.626-2.096,1.636-2.62,2.864
			c-0.218,0.513,0.021,1.108,0.534,1.327c0.127,0.053,0.26,0.08,0.396,0.08c0.406,0,0.771-0.24,0.931-0.613
			c0.403-0.949,1.185-1.704,2.144-2.073l0.029-0.012c0.07-0.026,0.142-0.05,0.214-0.072l0.054-0.015
			c0.157-0.046,0.323-0.084,0.489-0.11l0.039-0.006c0.083-0.012,0.165-0.021,0.248-0.029l0.047-0.002
			c0.084-0.006,0.171-0.01,0.258-0.01c2.11,0,3.826,1.717,3.826,3.827s-1.716,3.826-3.826,3.826c-0.558,0-1.011,0.453-1.011,1.01
			c0,0.559,0.453,1.012,1.011,1.012c3.225,0,5.848-2.623,5.848-5.848C31.278,8.89,28.655,6.267,25.431,6.267z"/>
	</g>
</g>
</svg>
